<mxfile host="app.diagrams.net" modified="2023-07-16T05:14:24.481Z" agent="Mozilla/5.0 (X11; Linux x86_64; rv:109.0) Gecko/20100101 Firefox/115.0" etag="m09UJtdn41P9BocEIc13" version="21.6.2" type="github">
  <diagram name="Page-1" id="90a13364-a465-7bf4-72fc-28e22215d7a0">
    <mxGraphModel dx="1509" dy="771" grid="1" gridSize="10" guides="1" tooltips="1" connect="1" arrows="1" fold="1" page="1" pageScale="1.5" pageWidth="1169" pageHeight="826" background="none" math="0" shadow="0">
      <root>
        <mxCell id="0" style=";html=1;" />
        <mxCell id="1" style=";html=1;" parent="0" />
        <mxCell id="QSYzYtRswJtYoRHzu4m6-4" style="edgeStyle=orthogonalEdgeStyle;rounded=0;orthogonalLoop=1;jettySize=auto;html=1;exitX=1;exitY=0.5;exitDx=0;exitDy=0;entryX=0;entryY=0.5;entryDx=0;entryDy=0;" edge="1" parent="1" source="QSYzYtRswJtYoRHzu4m6-2" target="QSYzYtRswJtYoRHzu4m6-3">
          <mxGeometry relative="1" as="geometry" />
        </mxCell>
        <mxCell id="QSYzYtRswJtYoRHzu4m6-2" value="&lt;div&gt;pc&lt;/div&gt;" style="rounded=0;whiteSpace=wrap;html=1;" vertex="1" parent="1">
          <mxGeometry x="160" y="380" width="120" height="60" as="geometry" />
        </mxCell>
        <mxCell id="QSYzYtRswJtYoRHzu4m6-6" style="edgeStyle=orthogonalEdgeStyle;rounded=0;orthogonalLoop=1;jettySize=auto;html=1;entryX=0;entryY=0.5;entryDx=0;entryDy=0;" edge="1" parent="1" source="QSYzYtRswJtYoRHzu4m6-3" target="QSYzYtRswJtYoRHzu4m6-5">
          <mxGeometry relative="1" as="geometry" />
        </mxCell>
        <mxCell id="QSYzYtRswJtYoRHzu4m6-12" style="edgeStyle=orthogonalEdgeStyle;rounded=0;orthogonalLoop=1;jettySize=auto;html=1;exitX=0.25;exitY=0;exitDx=0;exitDy=0;entryX=0.25;entryY=1;entryDx=0;entryDy=0;" edge="1" parent="1" source="QSYzYtRswJtYoRHzu4m6-3" target="QSYzYtRswJtYoRHzu4m6-10">
          <mxGeometry relative="1" as="geometry" />
        </mxCell>
        <mxCell id="QSYzYtRswJtYoRHzu4m6-3" value="memory_middle" style="rounded=0;whiteSpace=wrap;html=1;" vertex="1" parent="1">
          <mxGeometry x="365" y="380" width="170" height="60" as="geometry" />
        </mxCell>
        <mxCell id="QSYzYtRswJtYoRHzu4m6-21" style="edgeStyle=orthogonalEdgeStyle;rounded=0;orthogonalLoop=1;jettySize=auto;html=1;exitX=0;exitY=1;exitDx=80;exitDy=0;exitPerimeter=0;" edge="1" parent="1" source="QSYzYtRswJtYoRHzu4m6-5">
          <mxGeometry relative="1" as="geometry">
            <mxPoint x="800" y="480" as="targetPoint" />
          </mxGeometry>
        </mxCell>
        <mxCell id="QSYzYtRswJtYoRHzu4m6-22" style="edgeStyle=orthogonalEdgeStyle;rounded=0;orthogonalLoop=1;jettySize=auto;html=1;exitX=0;exitY=1;exitDx=40;exitDy=0;exitPerimeter=0;" edge="1" parent="1" source="QSYzYtRswJtYoRHzu4m6-5">
          <mxGeometry relative="1" as="geometry">
            <mxPoint x="760" y="480" as="targetPoint" />
          </mxGeometry>
        </mxCell>
        <mxCell id="QSYzYtRswJtYoRHzu4m6-23" style="edgeStyle=orthogonalEdgeStyle;rounded=0;orthogonalLoop=1;jettySize=auto;html=1;exitX=0.5;exitY=1;exitDx=0;exitDy=0;exitPerimeter=0;" edge="1" parent="1" source="QSYzYtRswJtYoRHzu4m6-5">
          <mxGeometry relative="1" as="geometry">
            <mxPoint x="840" y="480" as="targetPoint" />
          </mxGeometry>
        </mxCell>
        <mxCell id="QSYzYtRswJtYoRHzu4m6-24" style="edgeStyle=orthogonalEdgeStyle;rounded=0;orthogonalLoop=1;jettySize=auto;html=1;exitX=0;exitY=1;exitDx=160;exitDy=0;exitPerimeter=0;" edge="1" parent="1" source="QSYzYtRswJtYoRHzu4m6-5">
          <mxGeometry relative="1" as="geometry">
            <mxPoint x="880" y="480" as="targetPoint" />
          </mxGeometry>
        </mxCell>
        <mxCell id="QSYzYtRswJtYoRHzu4m6-25" style="edgeStyle=orthogonalEdgeStyle;rounded=0;orthogonalLoop=1;jettySize=auto;html=1;exitX=0;exitY=1;exitDx=200;exitDy=0;exitPerimeter=0;" edge="1" parent="1" source="QSYzYtRswJtYoRHzu4m6-5">
          <mxGeometry relative="1" as="geometry">
            <mxPoint x="920" y="480" as="targetPoint" />
          </mxGeometry>
        </mxCell>
        <mxCell id="QSYzYtRswJtYoRHzu4m6-26" style="edgeStyle=orthogonalEdgeStyle;rounded=0;orthogonalLoop=1;jettySize=auto;html=1;exitX=1;exitY=0.75;exitDx=0;exitDy=0;exitPerimeter=0;" edge="1" parent="1" source="QSYzYtRswJtYoRHzu4m6-5">
          <mxGeometry relative="1" as="geometry">
            <mxPoint x="1000" y="425" as="targetPoint" />
          </mxGeometry>
        </mxCell>
        <mxCell id="QSYzYtRswJtYoRHzu4m6-27" style="edgeStyle=orthogonalEdgeStyle;rounded=0;orthogonalLoop=1;jettySize=auto;html=1;exitX=1;exitY=0.5;exitDx=0;exitDy=0;exitPerimeter=0;" edge="1" parent="1" source="QSYzYtRswJtYoRHzu4m6-5">
          <mxGeometry relative="1" as="geometry">
            <mxPoint x="1000" y="410" as="targetPoint" />
          </mxGeometry>
        </mxCell>
        <mxCell id="QSYzYtRswJtYoRHzu4m6-28" style="edgeStyle=orthogonalEdgeStyle;rounded=0;orthogonalLoop=1;jettySize=auto;html=1;exitX=1;exitY=0.25;exitDx=0;exitDy=0;exitPerimeter=0;" edge="1" parent="1" source="QSYzYtRswJtYoRHzu4m6-5">
          <mxGeometry relative="1" as="geometry">
            <mxPoint x="1000" y="395" as="targetPoint" />
          </mxGeometry>
        </mxCell>
        <mxCell id="QSYzYtRswJtYoRHzu4m6-29" style="edgeStyle=orthogonalEdgeStyle;rounded=0;orthogonalLoop=1;jettySize=auto;html=1;exitX=0.75;exitY=0;exitDx=0;exitDy=0;exitPerimeter=0;" edge="1" parent="1" source="QSYzYtRswJtYoRHzu4m6-5">
          <mxGeometry relative="1" as="geometry">
            <mxPoint x="900" y="340" as="targetPoint" />
          </mxGeometry>
        </mxCell>
        <mxCell id="QSYzYtRswJtYoRHzu4m6-30" style="edgeStyle=orthogonalEdgeStyle;rounded=0;orthogonalLoop=1;jettySize=auto;html=1;exitX=0.5;exitY=0;exitDx=0;exitDy=0;exitPerimeter=0;" edge="1" parent="1" source="QSYzYtRswJtYoRHzu4m6-5">
          <mxGeometry relative="1" as="geometry">
            <mxPoint x="840" y="340" as="targetPoint" />
          </mxGeometry>
        </mxCell>
        <mxCell id="QSYzYtRswJtYoRHzu4m6-31" style="edgeStyle=orthogonalEdgeStyle;rounded=0;orthogonalLoop=1;jettySize=auto;html=1;exitX=0.25;exitY=0;exitDx=0;exitDy=0;exitPerimeter=0;" edge="1" parent="1" source="QSYzYtRswJtYoRHzu4m6-5">
          <mxGeometry relative="1" as="geometry">
            <mxPoint x="780" y="340" as="targetPoint" />
          </mxGeometry>
        </mxCell>
        <mxCell id="QSYzYtRswJtYoRHzu4m6-5" value="&lt;div&gt;decode&lt;/div&gt;" style="rounded=0;whiteSpace=wrap;html=1;points=[[0,0,0,0,0],[0,0.5,0,0,0],[0,1,0,0,0],[0,1,0,40,0],[0,1,0,80,0],[0,1,0,160,0],[0,1,0,200,0],[0.25,0,0,0,0],[0.5,0,0,0,0],[0.5,1,0,0,0],[0.75,0,0,0,0],[1,0,0,0,0],[1,0.25,0,0,0],[1,0.5,0,0,0],[1,0.75,0,0,0],[1,1,0,0,0]];" vertex="1" parent="1">
          <mxGeometry x="720" y="380" width="240" height="60" as="geometry" />
        </mxCell>
        <mxCell id="QSYzYtRswJtYoRHzu4m6-7" value="nemu" style="swimlane;whiteSpace=wrap;html=1;" vertex="1" parent="1">
          <mxGeometry x="350" y="240" width="200" height="70" as="geometry" />
        </mxCell>
        <mxCell id="QSYzYtRswJtYoRHzu4m6-10" value="memory" style="whiteSpace=wrap;html=1;" vertex="1" parent="QSYzYtRswJtYoRHzu4m6-7">
          <mxGeometry x="10" y="30" width="120" height="30" as="geometry" />
        </mxCell>
        <mxCell id="QSYzYtRswJtYoRHzu4m6-13" style="edgeStyle=orthogonalEdgeStyle;rounded=0;orthogonalLoop=1;jettySize=auto;html=1;exitX=0.75;exitY=1;exitDx=0;exitDy=0;entryX=0.5;entryY=0;entryDx=0;entryDy=0;" edge="1" parent="1" source="QSYzYtRswJtYoRHzu4m6-10" target="QSYzYtRswJtYoRHzu4m6-3">
          <mxGeometry relative="1" as="geometry" />
        </mxCell>
        <mxCell id="QSYzYtRswJtYoRHzu4m6-14" value="" style="endArrow=classic;html=1;rounded=0;entryX=0.5;entryY=1;entryDx=0;entryDy=0;" edge="1" parent="1" target="QSYzYtRswJtYoRHzu4m6-2">
          <mxGeometry width="50" height="50" relative="1" as="geometry">
            <mxPoint x="220" y="480" as="sourcePoint" />
            <mxPoint x="230" y="460" as="targetPoint" />
          </mxGeometry>
        </mxCell>
        <mxCell id="QSYzYtRswJtYoRHzu4m6-15" value="" style="endArrow=classic;html=1;rounded=0;" edge="1" parent="1">
          <mxGeometry width="50" height="50" relative="1" as="geometry">
            <mxPoint x="80" y="410" as="sourcePoint" />
            <mxPoint x="160" y="410" as="targetPoint" />
          </mxGeometry>
        </mxCell>
      </root>
    </mxGraphModel>
  </diagram>
</mxfile>
